<svg xmlns="http://www.w3.org/2000/svg" viewBox="0 0 1200 800" fill="none">
  <defs>
    <linearGradient id="bg" x1="80" y1="40" x2="1080" y2="760" gradientUnits="userSpaceOnUse">
      <stop stop-color="hsl(214 68% 97%)"/>
      <stop offset="1" stop-color="hsl(242 72% 91%)"/>
    </linearGradient>
  </defs>
  <rect width="1200" height="800" fill="url(#bg)"/>
  <circle cx="1040" cy="138" r="120" fill="hsl(268 78% 66%)" opacity="0.24"/>
  <circle cx="170" cy="168" r="104" fill="white" opacity="0.58"/>
  <path d="M0 684C188 624 374 622 562 664C754 708 988 732 1200 660V800H0V684Z" fill="hsl(214 42% 28%)" opacity="0.14"/>

  <rect x="280" y="220" width="220" height="520" rx="24" fill="hsl(214 42% 28%)"/>
  <rect x="470" y="150" width="230" height="590" rx="24" fill="hsl(214 54% 34%)" opacity="0.94"/>
  <rect x="650" y="270" width="140" height="470" rx="22" fill="hsl(214 42% 28%)" opacity="0.86"/>
  <g opacity="0.78">
    <rect x="320" y="300" width="50" height="80" rx="10" fill="white"/>
    <rect x="392" y="300" width="50" height="80" rx="10" fill="hsl(268 78% 66%)"/>
    <rect x="520" y="230" width="56" height="76" rx="10" fill="white"/>
    <rect x="600" y="230" width="56" height="76" rx="10" fill="hsl(268 78% 66%)"/>
    <rect x="520" y="340" width="56" height="76" rx="10" fill="hsl(268 78% 66%)"/>
    <rect x="600" y="340" width="56" height="76" rx="10" fill="white"/>
    <rect x="690" y="340" width="42" height="70" rx="9" fill="white"/>
  </g>
        
  <text x="84" y="112" fill="hsl(214 54% 34%)" font-family="DM Sans, Arial, sans-serif" font-size="22" font-weight="700">NAGPUR · COMMERCIAL</text>
  <text x="84" y="174" fill="hsl(214 46% 18%)" font-family="DM Sans, Arial, sans-serif" font-size="46" font-weight="700">Axis Workspaces</text>
  <text x="84" y="214" fill="hsl(214 54% 34%)" font-family="DM Sans, Arial, sans-serif" font-size="26">MIHAN, Nagpur</text>
  <text x="84" y="250" fill="hsl(214 54% 34%)" font-family="DM Sans, Arial, sans-serif" font-size="20">Business asset</text>
  <rect x="84" y="286" width="360" height="56" rx="28" fill="white" opacity="0.62"/>
  <text x="112" y="322" fill="hsl(214 46% 18%)" font-family="DM Sans, Arial, sans-serif" font-size="22" font-weight="600">Emerging business district asset</text>
</svg>
