<svg xmlns="http://www.w3.org/2000/svg" viewBox="0 0 1600 1000" fill="none">
  <defs>
    <linearGradient id="sky" x1="300" y1="0" x2="1300" y2="640" gradientUnits="userSpaceOnUse">
      <stop stop-color="#EAF3FF"/>
      <stop offset="1" stop-color="#DBFFF1"/>
    </linearGradient>
    <linearGradient id="tower" x1="650" y1="220" x2="1020" y2="850" gradientUnits="userSpaceOnUse">
      <stop stop-color="#3557B2"/>
      <stop offset="1" stop-color="#112350"/>
    </linearGradient>
  </defs>
  <rect width="1600" height="1000" fill="url(#sky)"/>
  <circle cx="1260" cy="160" r="110" fill="#9AE5C7" opacity=".4"/>
  <path d="M0 760C230 710 490 720 700 770C970 835 1260 840 1600 740V1000H0V760Z" fill="#7CB7F6" opacity=".72"/>
  <path d="M0 820C250 790 470 810 710 860C940 908 1280 910 1600 790V1000H0V820Z" fill="#173064" opacity=".92"/>
  <rect x="620" y="250" width="420" height="500" rx="44" fill="url(#tower)"/>
  <rect x="720" y="180" width="220" height="120" rx="34" fill="#F6FAFF"/>
  <g opacity=".92">
    <rect x="690" y="340" width="80" height="90" rx="16" fill="#CDE5FF"/>
    <rect x="800" y="340" width="80" height="90" rx="16" fill="#A8F0D2"/>
    <rect x="910" y="340" width="80" height="90" rx="16" fill="#CDE5FF"/>
    <rect x="690" y="470" width="80" height="90" rx="16" fill="#A8F0D2"/>
    <rect x="800" y="470" width="80" height="90" rx="16" fill="#CDE5FF"/>
    <rect x="910" y="470" width="80" height="90" rx="16" fill="#A8F0D2"/>
  </g>
  <path d="M200 770C300 720 460 720 600 770C740 820 860 820 1030 760" stroke="#A8F0D2" stroke-width="20" stroke-linecap="round"/>
  <text x="92" y="122" fill="#173165" font-family="DM Sans, Arial, sans-serif" font-size="40" font-weight="700">Coastal premium collection</text>
  <text x="92" y="168" fill="#4E70CC" font-family="DM Sans, Arial, sans-serif" font-size="24">Waterfront calm with a polished skyline edge</text>
</svg>
