<svg xmlns="http://www.w3.org/2000/svg" viewBox="0 0 1600 1000" fill="none">
  <defs>
    <linearGradient id="bg" x1="200" y1="0" x2="1400" y2="1000" gradientUnits="userSpaceOnUse">
      <stop stop-color="#DDE7FF"/>
      <stop offset="1" stop-color="#E8FFF3"/>
    </linearGradient>
    <linearGradient id="tower" x1="650" y1="160" x2="980" y2="860" gradientUnits="userSpaceOnUse">
      <stop stop-color="#2F4DAA"/>
      <stop offset="1" stop-color="#0F1F48"/>
    </linearGradient>
  </defs>
  <rect width="1600" height="1000" fill="url(#bg)"/>
  <circle cx="1330" cy="180" r="120" fill="#A8F0D2" opacity=".45"/>
  <circle cx="260" cy="190" r="140" fill="#99ABFF" opacity=".35"/>
  <path d="M0 760C210 680 350 700 540 760C730 820 930 860 1180 780C1330 732 1470 700 1600 720V1000H0V760Z" fill="#9BC9FF" opacity=".5"/>
  <path d="M0 820C220 770 450 760 660 810C880 865 1160 900 1600 770V1000H0V820Z" fill="#1A326B" opacity=".85"/>
  <rect x="628" y="170" width="360" height="620" rx="40" fill="url(#tower)"/>
  <rect x="683" y="110" width="250" height="120" rx="34" fill="#F8FBFF" opacity=".92"/>
  <rect x="715" y="140" width="186" height="46" rx="23" fill="#2744A4" opacity=".9"/>
  <g opacity=".88">
    <rect x="680" y="280" width="68" height="96" rx="14" fill="#CBE5FF"/>
    <rect x="774" y="280" width="68" height="96" rx="14" fill="#A7F1D6"/>
    <rect x="868" y="280" width="68" height="96" rx="14" fill="#CBE5FF"/>
    <rect x="680" y="408" width="68" height="96" rx="14" fill="#A7F1D6"/>
    <rect x="774" y="408" width="68" height="96" rx="14" fill="#CBE5FF"/>
    <rect x="868" y="408" width="68" height="96" rx="14" fill="#A7F1D6"/>
    <rect x="680" y="536" width="68" height="96" rx="14" fill="#CBE5FF"/>
    <rect x="774" y="536" width="68" height="96" rx="14" fill="#A7F1D6"/>
    <rect x="868" y="536" width="68" height="96" rx="14" fill="#CBE5FF"/>
  </g>
  <rect x="708" y="710" width="200" height="80" rx="28" fill="#F8FBFF"/>
  <text x="90" y="120" fill="#1A326B" font-family="DM Sans, Arial, sans-serif" font-size="42" font-weight="700">PropSpace AI</text>
  <text x="90" y="168" fill="#4565C4" font-family="DM Sans, Arial, sans-serif" font-size="24">Metro luxury collection</text>
</svg>
