<svg xmlns="http://www.w3.org/2000/svg" viewBox="0 0 1600 1000" fill="none">
  <defs>
    <linearGradient id="bg" x1="0" y1="0" x2="1600" y2="1000" gradientUnits="userSpaceOnUse">
      <stop stop-color="#EEF3FF"/>
      <stop offset="1" stop-color="#E5FFF6"/>
    </linearGradient>
    <linearGradient id="tower" x1="540" y1="130" x2="1120" y2="860" gradientUnits="userSpaceOnUse">
      <stop stop-color="#314EA9"/>
      <stop offset="1" stop-color="#0C1B42"/>
    </linearGradient>
  </defs>
  <rect width="1600" height="1000" fill="url(#bg)"/>
  <path d="M0 820C230 760 470 760 720 820C950 875 1270 900 1600 790V1000H0V820Z" fill="#112552" opacity=".94"/>
  <circle cx="1260" cy="170" r="120" fill="#A6ECD0" opacity=".38"/>
  <rect x="520" y="180" width="190" height="600" rx="30" fill="#244490"/>
  <rect x="690" y="110" width="270" height="670" rx="36" fill="url(#tower)"/>
  <rect x="930" y="250" width="170" height="530" rx="28" fill="#3A5FBC"/>
  <g opacity=".9">
    <rect x="562" y="260" width="96" height="70" rx="12" fill="#CDE4FF"/>
    <rect x="562" y="370" width="96" height="70" rx="12" fill="#A9F1D3"/>
    <rect x="562" y="480" width="96" height="70" rx="12" fill="#CDE4FF"/>
    <rect x="740" y="220" width="70" height="70" rx="12" fill="#A9F1D3"/>
    <rect x="840" y="220" width="70" height="70" rx="12" fill="#CDE4FF"/>
    <rect x="740" y="330" width="70" height="70" rx="12" fill="#CDE4FF"/>
    <rect x="840" y="330" width="70" height="70" rx="12" fill="#A9F1D3"/>
    <rect x="980" y="330" width="70" height="70" rx="12" fill="#CDE4FF"/>
    <rect x="980" y="450" width="70" height="70" rx="12" fill="#A9F1D3"/>
  </g>
  <text x="92" y="122" fill="#173165" font-family="DM Sans, Arial, sans-serif" font-size="40" font-weight="700">Commercial skyline series</text>
  <text x="92" y="168" fill="#4E70CC" font-family="DM Sans, Arial, sans-serif" font-size="24">High-visibility workspace with premium frontage</text>
</svg>
