<svg xmlns="http://www.w3.org/2000/svg" viewBox="0 0 1600 1000" fill="none">
  <defs>
    <linearGradient id="bg" x1="200" y1="40" x2="1350" y2="980" gradientUnits="userSpaceOnUse">
      <stop stop-color="#F5F8FF"/>
      <stop offset="1" stop-color="#DFF4FF"/>
    </linearGradient>
    <linearGradient id="building" x1="470" y1="160" x2="980" y2="860" gradientUnits="userSpaceOnUse">
      <stop stop-color="#435FB9"/>
      <stop offset="1" stop-color="#1C2C62"/>
    </linearGradient>
  </defs>
  <rect width="1600" height="1000" fill="url(#bg)"/>
  <ellipse cx="1220" cy="180" rx="180" ry="110" fill="#B3EFD8" opacity=".45"/>
  <path d="M0 780C230 710 500 700 720 760C940 820 1250 860 1600 760V1000H0V780Z" fill="#183064" opacity=".88"/>
  <rect x="430" y="250" width="530" height="520" rx="36" fill="url(#building)"/>
  <rect x="520" y="180" width="350" height="140" rx="30" fill="#EEF4FF"/>
  <rect x="535" y="235" width="320" height="18" rx="9" fill="#B5CFFF"/>
  <g opacity=".95">
    <rect x="500" y="340" width="110" height="90" rx="16" fill="#D6E7FF"/>
    <rect x="640" y="340" width="110" height="90" rx="16" fill="#B8F2DD"/>
    <rect x="780" y="340" width="110" height="90" rx="16" fill="#D6E7FF"/>
    <rect x="500" y="470" width="110" height="90" rx="16" fill="#B8F2DD"/>
    <rect x="640" y="470" width="110" height="90" rx="16" fill="#D6E7FF"/>
    <rect x="780" y="470" width="110" height="90" rx="16" fill="#B8F2DD"/>
    <rect x="500" y="600" width="110" height="90" rx="16" fill="#D6E7FF"/>
    <rect x="640" y="600" width="110" height="90" rx="16" fill="#B8F2DD"/>
    <rect x="780" y="600" width="110" height="90" rx="16" fill="#D6E7FF"/>
  </g>
  <rect x="1020" y="340" width="180" height="430" rx="26" fill="#2B4D99" opacity=".9"/>
  <rect x="1085" y="295" width="52" height="120" rx="24" fill="#F4F8FF"/>
  <text x="96" y="122" fill="#173165" font-family="DM Sans, Arial, sans-serif" font-size="40" font-weight="700">Urban apartment series</text>
  <text x="96" y="168" fill="#4E70CC" font-family="DM Sans, Arial, sans-serif" font-size="24">Bright, efficient, city-ready homes</text>
</svg>
