<svg xmlns="http://www.w3.org/2000/svg" viewBox="0 0 1600 1000" fill="none">
  <defs>
    <linearGradient id="bg" x1="0" y1="0" x2="1600" y2="1000" gradientUnits="userSpaceOnUse">
      <stop stop-color="#EEF3FF"/>
      <stop offset="1" stop-color="#E5FFF6"/>
    </linearGradient>
    <linearGradient id="home" x1="520" y1="220" x2="1030" y2="860" gradientUnits="userSpaceOnUse">
      <stop stop-color="#3153B1"/>
      <stop offset="1" stop-color="#10224F"/>
    </linearGradient>
  </defs>
  <rect width="1600" height="1000" fill="url(#bg)"/>
  <path d="M0 820C200 760 420 740 660 790C920 845 1220 860 1600 760V1000H0V820Z" fill="#0F214B" opacity=".92"/>
  <circle cx="1260" cy="170" r="120" fill="#A2EFCF" opacity=".4"/>
  <rect x="500" y="290" width="560" height="450" rx="44" fill="url(#home)"/>
  <rect x="620" y="220" width="320" height="120" rx="34" fill="#F5F9FF"/>
  <rect x="760" y="390" width="120" height="350" rx="22" fill="#F7FAFF"/>
  <g opacity=".92">
    <rect x="560" y="390" width="140" height="120" rx="24" fill="#A8F0D2"/>
    <rect x="920" y="390" width="80" height="120" rx="24" fill="#CFE4FF"/>
    <rect x="560" y="560" width="140" height="120" rx="24" fill="#CFE4FF"/>
    <rect x="920" y="560" width="80" height="120" rx="24" fill="#A8F0D2"/>
  </g>
  <path d="M290 760C370 690 450 650 560 640C680 630 760 690 840 760H290Z" fill="#8EDAB8"/>
  <circle cx="430" cy="690" r="34" fill="#5CBD89"/>
  <circle cx="780" cy="705" r="26" fill="#5CBD89"/>
  <text x="92" y="122" fill="#1C356C" font-family="DM Sans, Arial, sans-serif" font-size="40" font-weight="700">Wellness residence</text>
  <text x="92" y="168" fill="#4E70CC" font-family="DM Sans, Arial, sans-serif" font-size="24">Amenity-led living with calm, soft light</text>
</svg>
